<mxfile host="Electron" modified="2023-04-25T10:31:04.970Z" agent="Mozilla/5.0 (Windows NT 10.0; Win64; x64) AppleWebKit/537.36 (KHTML, like Gecko) draw.io/21.1.2 Chrome/106.0.5249.199 Electron/21.4.3 Safari/537.36" etag="NE1ZIgFu8NMyPyYowYWQ" version="21.1.2" type="device">
  <diagram name="Page-1" id="9UM8Z-CtF9ye3CNi1vJw">
    <mxGraphModel dx="1050" dy="621" grid="1" gridSize="10" guides="1" tooltips="1" connect="1" arrows="1" fold="1" page="1" pageScale="1" pageWidth="1169" pageHeight="827" math="0" shadow="0">
      <root>
        <mxCell id="0" />
        <mxCell id="1" parent="0" />
        <mxCell id="YPGk9sVfuumeABNAydG5-1" value="E1" style="ellipse;whiteSpace=wrap;html=1;aspect=fixed;" vertex="1" parent="1">
          <mxGeometry x="555" y="384" width="60" height="60" as="geometry" />
        </mxCell>
        <mxCell id="YPGk9sVfuumeABNAydG5-11" value="5.4" style="edgeStyle=orthogonalEdgeStyle;rounded=0;orthogonalLoop=1;jettySize=auto;html=1;exitX=0.5;exitY=1;exitDx=0;exitDy=0;entryX=0.5;entryY=0;entryDx=0;entryDy=0;endArrow=none;endFill=0;" edge="1" parent="1" source="YPGk9sVfuumeABNAydG5-3" target="YPGk9sVfuumeABNAydG5-1">
          <mxGeometry relative="1" as="geometry" />
        </mxCell>
        <mxCell id="YPGk9sVfuumeABNAydG5-3" value="C1" style="ellipse;whiteSpace=wrap;html=1;aspect=fixed;" vertex="1" parent="1">
          <mxGeometry x="555" y="250" width="60" height="60" as="geometry" />
        </mxCell>
        <mxCell id="YPGk9sVfuumeABNAydG5-13" value="10.1" style="edgeStyle=orthogonalEdgeStyle;rounded=0;orthogonalLoop=1;jettySize=auto;html=1;exitX=0;exitY=0.5;exitDx=0;exitDy=0;endArrow=none;endFill=0;" edge="1" parent="1" source="YPGk9sVfuumeABNAydG5-4" target="YPGk9sVfuumeABNAydG5-1">
          <mxGeometry relative="1" as="geometry" />
        </mxCell>
        <mxCell id="YPGk9sVfuumeABNAydG5-4" value="C3" style="ellipse;whiteSpace=wrap;html=1;aspect=fixed;" vertex="1" parent="1">
          <mxGeometry x="690" y="384" width="60" height="60" as="geometry" />
        </mxCell>
        <mxCell id="YPGk9sVfuumeABNAydG5-15" value="2.1" style="edgeStyle=orthogonalEdgeStyle;rounded=0;orthogonalLoop=1;jettySize=auto;html=1;entryX=0.5;entryY=1;entryDx=0;entryDy=0;endArrow=none;endFill=0;" edge="1" parent="1" source="YPGk9sVfuumeABNAydG5-5" target="YPGk9sVfuumeABNAydG5-1">
          <mxGeometry relative="1" as="geometry" />
        </mxCell>
        <mxCell id="YPGk9sVfuumeABNAydG5-5" value="C5" style="ellipse;whiteSpace=wrap;html=1;aspect=fixed;" vertex="1" parent="1">
          <mxGeometry x="555" y="520" width="60" height="60" as="geometry" />
        </mxCell>
        <mxCell id="YPGk9sVfuumeABNAydG5-17" value="9.8" style="edgeStyle=orthogonalEdgeStyle;rounded=0;orthogonalLoop=1;jettySize=auto;html=1;exitX=1;exitY=0.5;exitDx=0;exitDy=0;entryX=0;entryY=0.5;entryDx=0;entryDy=0;endArrow=none;endFill=0;" edge="1" parent="1" source="YPGk9sVfuumeABNAydG5-6" target="YPGk9sVfuumeABNAydG5-1">
          <mxGeometry relative="1" as="geometry" />
        </mxCell>
        <mxCell id="YPGk9sVfuumeABNAydG5-6" value="C7" style="ellipse;whiteSpace=wrap;html=1;aspect=fixed;" vertex="1" parent="1">
          <mxGeometry x="420" y="384" width="60" height="60" as="geometry" />
        </mxCell>
        <mxCell id="YPGk9sVfuumeABNAydG5-12" value="3.2" style="rounded=0;orthogonalLoop=1;jettySize=auto;html=1;exitX=0;exitY=1;exitDx=0;exitDy=0;entryX=1;entryY=0;entryDx=0;entryDy=0;endArrow=none;endFill=0;" edge="1" parent="1" source="YPGk9sVfuumeABNAydG5-7" target="YPGk9sVfuumeABNAydG5-1">
          <mxGeometry relative="1" as="geometry" />
        </mxCell>
        <mxCell id="YPGk9sVfuumeABNAydG5-7" value="C2" style="ellipse;whiteSpace=wrap;html=1;aspect=fixed;" vertex="1" parent="1">
          <mxGeometry x="650" y="290" width="60" height="60" as="geometry" />
        </mxCell>
        <mxCell id="YPGk9sVfuumeABNAydG5-14" value="7.6" style="rounded=0;orthogonalLoop=1;jettySize=auto;html=1;exitX=0;exitY=0;exitDx=0;exitDy=0;entryX=1;entryY=1;entryDx=0;entryDy=0;endArrow=none;endFill=0;" edge="1" parent="1" source="YPGk9sVfuumeABNAydG5-8" target="YPGk9sVfuumeABNAydG5-1">
          <mxGeometry relative="1" as="geometry" />
        </mxCell>
        <mxCell id="YPGk9sVfuumeABNAydG5-8" value="C4" style="ellipse;whiteSpace=wrap;html=1;aspect=fixed;" vertex="1" parent="1">
          <mxGeometry x="650" y="480" width="60" height="60" as="geometry" />
        </mxCell>
        <mxCell id="YPGk9sVfuumeABNAydG5-18" value="4.6" style="rounded=0;orthogonalLoop=1;jettySize=auto;html=1;exitX=1;exitY=1;exitDx=0;exitDy=0;entryX=0;entryY=0;entryDx=0;entryDy=0;endArrow=none;endFill=0;" edge="1" parent="1" source="YPGk9sVfuumeABNAydG5-9" target="YPGk9sVfuumeABNAydG5-1">
          <mxGeometry relative="1" as="geometry" />
        </mxCell>
        <mxCell id="YPGk9sVfuumeABNAydG5-9" value="C8" style="ellipse;whiteSpace=wrap;html=1;aspect=fixed;" vertex="1" parent="1">
          <mxGeometry x="460" y="290" width="60" height="60" as="geometry" />
        </mxCell>
        <mxCell id="YPGk9sVfuumeABNAydG5-16" value="14.4" style="rounded=0;orthogonalLoop=1;jettySize=auto;html=1;exitX=1;exitY=0;exitDx=0;exitDy=0;entryX=0;entryY=1;entryDx=0;entryDy=0;endArrow=none;endFill=0;" edge="1" parent="1" source="YPGk9sVfuumeABNAydG5-10" target="YPGk9sVfuumeABNAydG5-1">
          <mxGeometry relative="1" as="geometry" />
        </mxCell>
        <mxCell id="YPGk9sVfuumeABNAydG5-10" value="C6" style="ellipse;whiteSpace=wrap;html=1;aspect=fixed;" vertex="1" parent="1">
          <mxGeometry x="460" y="480" width="60" height="60" as="geometry" />
        </mxCell>
      </root>
    </mxGraphModel>
  </diagram>
</mxfile>
